# xmcd
#
# Track frame offsets:
# 150
# 13850
# 31842
# 46347
# 61125
# 78480
# 92647
# 110937
# 130622
# 147940
# 167450
# 181870
# 199534
# 221892
#
# Disc length: 3158 seconds
#
#
# Revision: 0
# Processed by: cddbd v1.5.2PL0 Copyright (c) Steve Scherf et al.
# Submitted via: FreeRIP 2.951 
#
DISCID=bb0c540e
DTITLE=Rosa Maria - Minha História
DYEAR=1900
DGENRE=Blues
TTITLE0=The More I See You
TTITLE1=Rosa In Blues
TTITLE2=California Dreamin´
TTITLE3=Molambo
TTITLE4=Cantei um Blues
TTITLE5=Monday, Monday
TTITLE6=Meditation
TTITLE7=Sophisticated Lady
TTITLE8=When a Man Loves a Woman
TTITLE9=Light My Fire
TTITLE10=Smoke Gets In Your Eyes
TTITLE11=A Whiter Shade Of Pale
TTITLE12=Can´t Take My Eyes Off Of You
TTITLE13=Black-Tie
EXTD=by Marcos Rocha
EXTT0=
EXTT1=
EXTT2=
EXTT3=
EXTT4=
EXTT5=
EXTT6=
EXTT7=
EXTT8=
EXTT9=
EXTT10=
EXTT11=
EXTT12=
EXTT13=
PLAYORDER=
